<svg>
 <symbol id="add-task" style="enable-background:new 0 0 15 15;" version="1.1" viewBox="0 0 15 15" xml:space="preserve" xmlns="http://www.w3.org/2000/svg" xmlns:xlink="http://www.w3.org/1999/xlink">
       <path d="M7.5,0C3.364,0,0,3.364,0,7.5S3.364,15,7.5,15S15,11.636,15,7.5S11.636,0,7.5,0z M7.5,14C3.916,14,1,11.084,1,7.5  S3.916,1,7.5,1S14,3.916,14,7.5S11.084,14,7.5,14z"/>
       <polygon points="8,3.5 7,3.5 7,7 3.5,7 3.5,8 7,8 7,11.5 8,11.5 8,8 11.5,8 11.5,7 8,7 "/>
    </symbol>

     <symbol id="down-arrow" version="1.1" xmlns="http://www.w3.org/2000/svg" xmlns:xlink="http://www.w3.org/1999/xlink" x="0px" y="0px" viewBox="0 0 612 612" style="enable-background:new 0 0 612 612;" xml:space="preserve">
       <path d="M604.501,134.782c-9.999-10.05-26.222-10.05-36.221,0L306.014,422.558L43.721,134.782 c-9.999-10.05-26.223-10.05-36.222,0s-9.999,26.35,0,36.399l279.103,306.241c5.331,5.357,12.422,7.652,19.386,7.296 c6.988,0.356,14.055-1.939,19.386-7.296l279.128-306.268C614.5,161.106,614.5,144.832,604.501,134.782z"/>
    </symbol>

     <symbol id="delete" xmlns="http://www.w3.org/2000/svg"  viewBox="0 0 30 30" width="10px" height="10px">
      <path d="M 14.984375 2.4863281 A 1.0001 1.0001 0 0 0 14 3.5 L 14 4 L 8.5 4 A 1.0001 1.0001 0 0 0 7.4863281 5 L 6 5 A 1.0001 1.0001 0 1 0 6 7 L 24 7 A 1.0001 1.0001 0 1 0 24 5 L 22.513672 5 A 1.0001 1.0001 0 0 0 21.5 4 L 16 4 L 16 3.5 A 1.0001 1.0001 0 0 0 14.984375 2.4863281 z M 6 9 L 7.7929688 24.234375 C 7.9109687 25.241375 8.7633438 26 9.7773438 26 L 20.222656 26 C 21.236656 26 22.088031 25.241375 22.207031 24.234375 L 24 9 L 6 9 z"/>
    </symbol>
</svg>